<mxfile host="app.diagrams.net" modified="2024-07-18T05:19:27.701Z" agent="Mozilla/5.0 (Windows NT 10.0; Win64; x64) AppleWebKit/537.36 (KHTML, like Gecko) Chrome/126.0.0.0 Safari/537.36 Edg/126.0.0.0" etag="j-FFJ5AxV43UfbuAlVDJ" version="24.7.1" type="onedrive">
  <diagram name="ページ1" id="g-w2g6YNX4nKCftyRBRY">
    <mxGraphModel grid="1" page="0" gridSize="10" guides="1" tooltips="1" connect="1" arrows="1" fold="1" pageScale="1" pageWidth="827" pageHeight="1169" math="0" shadow="0">
      <root>
        <mxCell id="0" />
        <mxCell id="1" parent="0" />
        <mxCell id="yZJja9pP5Hla1c1Gb10V-8" style="edgeStyle=none;curved=1;rounded=0;orthogonalLoop=1;jettySize=auto;html=1;exitX=0.5;exitY=1;exitDx=0;exitDy=0;fontSize=12;startSize=8;endSize=8;" edge="1" parent="1" source="yZJja9pP5Hla1c1Gb10V-1" target="yZJja9pP5Hla1c1Gb10V-2">
          <mxGeometry relative="1" as="geometry" />
        </mxCell>
        <mxCell id="yZJja9pP5Hla1c1Gb10V-1" value="tree(node, indent=&quot;&quot;)&lt;div&gt;関数　開始&lt;/div&gt;" style="rounded=0;whiteSpace=wrap;html=1;" vertex="1" parent="1">
          <mxGeometry y="-120" width="120" height="60" as="geometry" />
        </mxCell>
        <mxCell id="yZJja9pP5Hla1c1Gb10V-9" style="edgeStyle=none;curved=1;rounded=0;orthogonalLoop=1;jettySize=auto;html=1;exitX=0.5;exitY=1;exitDx=0;exitDy=0;entryX=0.5;entryY=0;entryDx=0;entryDy=0;fontSize=12;startSize=8;endSize=8;" edge="1" parent="1" source="yZJja9pP5Hla1c1Gb10V-2" target="yZJja9pP5Hla1c1Gb10V-3">
          <mxGeometry relative="1" as="geometry" />
        </mxCell>
        <mxCell id="yZJja9pP5Hla1c1Gb10V-2" value="if&amp;nbsp;&lt;div&gt;node is not None&lt;/div&gt;" style="rhombus;whiteSpace=wrap;html=1;" vertex="1" parent="1">
          <mxGeometry x="-10" y="-40" width="140" height="80" as="geometry" />
        </mxCell>
        <mxCell id="yZJja9pP5Hla1c1Gb10V-10" style="edgeStyle=none;curved=1;rounded=0;orthogonalLoop=1;jettySize=auto;html=1;exitX=0.5;exitY=1;exitDx=0;exitDy=0;entryX=0.5;entryY=0;entryDx=0;entryDy=0;fontSize=12;startSize=8;endSize=8;" edge="1" parent="1" source="yZJja9pP5Hla1c1Gb10V-3" target="yZJja9pP5Hla1c1Gb10V-5">
          <mxGeometry relative="1" as="geometry" />
        </mxCell>
        <mxCell id="yZJja9pP5Hla1c1Gb10V-3" value="tree(node.right, indent + &quot;\t&quot;)　&lt;div&gt;右側の呼び出し&lt;/div&gt;" style="rounded=1;whiteSpace=wrap;html=1;" vertex="1" parent="1">
          <mxGeometry y="60" width="120" height="60" as="geometry" />
        </mxCell>
        <mxCell id="yZJja9pP5Hla1c1Gb10V-11" style="edgeStyle=none;curved=1;rounded=0;orthogonalLoop=1;jettySize=auto;html=1;exitX=0.5;exitY=1;exitDx=0;exitDy=0;entryX=0.5;entryY=0;entryDx=0;entryDy=0;fontSize=12;startSize=8;endSize=8;" edge="1" parent="1" source="yZJja9pP5Hla1c1Gb10V-5" target="yZJja9pP5Hla1c1Gb10V-6">
          <mxGeometry relative="1" as="geometry" />
        </mxCell>
        <mxCell id="yZJja9pP5Hla1c1Gb10V-5" value="printを用いて木構造を出力" style="rounded=1;whiteSpace=wrap;html=1;" vertex="1" parent="1">
          <mxGeometry y="140" width="120" height="60" as="geometry" />
        </mxCell>
        <UserObject label="tree(node.left, indent + &quot;\t&quot;)&lt;div&gt;左側の呼び出し&lt;/div&gt;" link="tree(node.left, indent + &quot;\t&quot;)" id="yZJja9pP5Hla1c1Gb10V-6">
          <mxCell style="rounded=1;whiteSpace=wrap;html=1;" vertex="1" parent="1">
            <mxGeometry y="220" width="120" height="60" as="geometry" />
          </mxCell>
        </UserObject>
        <mxCell id="yZJja9pP5Hla1c1Gb10V-13" value="終了" style="rounded=0;whiteSpace=wrap;html=1;" vertex="1" parent="1">
          <mxGeometry y="300" width="120" height="60" as="geometry" />
        </mxCell>
        <mxCell id="yZJja9pP5Hla1c1Gb10V-14" value="" style="endArrow=none;html=1;rounded=0;fontSize=12;startSize=8;endSize=8;curved=1;exitX=0;exitY=0.5;exitDx=0;exitDy=0;" edge="1" parent="1" source="yZJja9pP5Hla1c1Gb10V-6">
          <mxGeometry width="50" height="50" relative="1" as="geometry">
            <mxPoint x="30" y="210" as="sourcePoint" />
            <mxPoint x="-30" y="250" as="targetPoint" />
          </mxGeometry>
        </mxCell>
        <mxCell id="yZJja9pP5Hla1c1Gb10V-15" value="" style="endArrow=none;html=1;rounded=0;fontSize=12;startSize=8;endSize=8;curved=1;" edge="1" parent="1">
          <mxGeometry width="50" height="50" relative="1" as="geometry">
            <mxPoint x="-30" y="250" as="sourcePoint" />
            <mxPoint x="-30" as="targetPoint" />
          </mxGeometry>
        </mxCell>
        <mxCell id="yZJja9pP5Hla1c1Gb10V-16" value="" style="endArrow=classic;html=1;rounded=0;fontSize=12;startSize=8;endSize=8;curved=1;entryX=0;entryY=0.5;entryDx=0;entryDy=0;" edge="1" parent="1" target="yZJja9pP5Hla1c1Gb10V-2">
          <mxGeometry width="50" height="50" relative="1" as="geometry">
            <mxPoint x="-30" as="sourcePoint" />
            <mxPoint x="80" y="160" as="targetPoint" />
          </mxGeometry>
        </mxCell>
        <mxCell id="yZJja9pP5Hla1c1Gb10V-17" value="" style="endArrow=none;html=1;rounded=0;fontSize=12;startSize=8;endSize=8;curved=1;entryX=1;entryY=0.5;entryDx=0;entryDy=0;" edge="1" parent="1" target="yZJja9pP5Hla1c1Gb10V-2">
          <mxGeometry width="50" height="50" relative="1" as="geometry">
            <mxPoint x="150" as="sourcePoint" />
            <mxPoint x="110" y="140" as="targetPoint" />
          </mxGeometry>
        </mxCell>
        <mxCell id="yZJja9pP5Hla1c1Gb10V-18" value="" style="endArrow=none;html=1;rounded=0;fontSize=12;startSize=8;endSize=8;curved=1;" edge="1" parent="1">
          <mxGeometry width="50" height="50" relative="1" as="geometry">
            <mxPoint x="150" y="330" as="sourcePoint" />
            <mxPoint x="150" as="targetPoint" />
          </mxGeometry>
        </mxCell>
        <mxCell id="yZJja9pP5Hla1c1Gb10V-19" value="" style="endArrow=classic;html=1;rounded=0;fontSize=12;startSize=8;endSize=8;curved=1;entryX=1;entryY=0.5;entryDx=0;entryDy=0;" edge="1" parent="1" target="yZJja9pP5Hla1c1Gb10V-13">
          <mxGeometry width="50" height="50" relative="1" as="geometry">
            <mxPoint x="150" y="330" as="sourcePoint" />
            <mxPoint x="110" y="140" as="targetPoint" />
          </mxGeometry>
        </mxCell>
        <mxCell id="yZJja9pP5Hla1c1Gb10V-20" value="False" style="text;html=1;align=center;verticalAlign=middle;resizable=0;points=[];autosize=1;strokeColor=none;fillColor=none;fontSize=16;" vertex="1" parent="1">
          <mxGeometry x="104" y="-29" width="60" height="30" as="geometry" />
        </mxCell>
        <mxCell id="yZJja9pP5Hla1c1Gb10V-21" value="True" style="text;html=1;align=center;verticalAlign=middle;resizable=0;points=[];autosize=1;strokeColor=none;fillColor=none;fontSize=16;" vertex="1" parent="1">
          <mxGeometry x="54" y="31" width="60" height="30" as="geometry" />
        </mxCell>
      </root>
    </mxGraphModel>
  </diagram>
</mxfile>
